<?xml version="1.0" standalone="no"?><!DOCTYPE svg PUBLIC "-//W3C//DTD SVG 1.1//EN" "http://www.w3.org/Graphics/SVG/1.1/DTD/svg11.dtd"><svg t="1698042998394" class="icon" viewBox="0 0 1024 1024" version="1.1" xmlns="http://www.w3.org/2000/svg" p-id="4035" xmlns:xlink="http://www.w3.org/1999/xlink" width="200" height="200"><path d="M1023.488 740.864s-5.12-10.24-10.752-23.04l-149.504-329.216c-5.632-12.8-20.992-23.04-33.792-23.04h-123.904c-12.8 0-23.04 11.264-23.04 25.6v43.52c0 13.824 10.24 25.6 23.04 25.6h39.424c12.8 0 27.648 10.24 33.28 23.04l105.984 236.032c5.632 12.8 0 23.04-12.8 23.04h-168.448c-12.8 0-23.04 11.264-23.04 25.6v133.12c0 13.824-10.24 25.6-23.04 25.6h-291.84c-12.8 0-23.04-11.264-23.04-25.6v-133.632c0-13.824-10.24-25.6-23.04-25.6H146.944c-12.8 0-18.432-10.24-12.8-22.528l111.104-236.544c5.632-12.288 20.992-22.528 33.792-22.528H317.44c12.8 0 23.04-11.264 23.04-25.6v-43.008c0-13.824-10.24-25.6-23.04-25.6H194.048c-12.8 0-27.648 10.24-33.792 23.04L10.24 718.336c-5.632 12.8-10.24 23.04-10.24 23.04s0.512 11.264 0.512 25.6V998.4c0 13.824 10.24 25.6 23.04 25.6h977.408c12.8 0 23.04-11.264 23.04-25.6v-231.936c0-14.336 0-25.6-0.512-25.6zM304.64 279.04h122.368v379.392h163.84V279.04h129.024c12.288 0 15.872-8.192 7.68-18.432L524.288 7.68c-8.192-10.24-21.504-10.24-29.184 0L296.96 260.608c-8.192 10.24-4.608 18.432 7.68 18.432z" fill="#CED0DA" p-id="4036"></path></svg>